<?xml version="1.0" standalone="no"?>
<!DOCTYPE svg PUBLIC "-//W3C//DTD SVG 20010904//EN"
 "http://www.w3.org/TR/2001/REC-SVG-20010904/DTD/svg10.dtd">
<svg version="1.0" xmlns="http://www.w3.org/2000/svg"
 width="3540.000000pt" height="3540.000000pt" viewBox="0 0 3540.000000 3540.000000"
 preserveAspectRatio="xMidYMid meet">

<g transform="translate(0.000000,3540.000000) scale(0.100000,-0.100000)"
fill="#000000" stroke="none">
<path d="M4700 35389 c-986 -59 -1923 -405 -2714 -1002 -351 -265 -721 -635
-978 -980 -603 -808 -939 -1724 -998 -2722 -14 -234 -14 -25736 0 -25965 62
-1013 399 -1934 1003 -2734 265 -351 635 -721 980 -978 808 -603 1724 -939
2722 -998 234 -14 25736 -14 25965 0 1013 62 1934 399 2734 1003 351 265 721
635 978 980 603 808 939 1724 998 2722 6 104 10 919 10 2088 l0 1917 -25 0
c-22 0 -25 -4 -25 -35 0 -33 -2 -35 -34 -35 -33 0 -35 -2 -38 -37 -3 -35 -6
-38 -35 -41 -28 -3 -32 -7 -35 -35 -3 -28 -7 -32 -35 -35 -30 -3 -33 -6 -33
-38 0 -33 -1 -34 -40 -34 l-40 0 0 -40 c0 -39 -1 -40 -34 -40 l-34 0 -7 -64
c-6 -64 -7 -65 -38 -68 -29 -3 -32 -6 -35 -41 -3 -35 -5 -37 -38 -37 -32 0
-34 -2 -34 -35 0 -33 -2 -35 -35 -35 -33 0 -35 -2 -35 -34 0 -33 -2 -35 -37
-38 -35 -3 -38 -6 -41 -35 -3 -28 -7 -32 -35 -35 -29 -3 -32 -6 -35 -40 -3
-36 -5 -38 -38 -38 -32 0 -34 -2 -34 -35 0 -33 -2 -35 -35 -35 -33 0 -35 -2
-35 -34 0 -33 -2 -35 -37 -38 -36 -3 -38 -5 -41 -40 -3 -36 -5 -38 -38 -38
-32 0 -34 -2 -34 -35 0 -33 -2 -35 -35 -35 -33 0 -35 -2 -35 -34 0 -33 -2 -35
-37 -38 -35 -3 -38 -6 -41 -35 -3 -31 -4 -32 -68 -38 l-64 -7 0 -34 c0 -33 -1
-34 -40 -34 l-40 0 0 -40 c0 -39 -1 -40 -34 -40 -32 0 -35 -3 -38 -32 -3 -29
-7 -33 -35 -36 -28 -3 -32 -7 -35 -35 -3 -29 -6 -32 -40 -35 -36 -3 -38 -5
-38 -38 0 -32 -2 -34 -35 -34 -33 0 -35 -2 -35 -35 0 -33 -2 -35 -35 -35 -33
0 -35 -2 -35 -34 0 -33 -2 -35 -37 -38 -35 -3 -38 -6 -41 -35 -3 -32 -3 -32
-73 -39 l-69 -7 0 -33 c0 -32 -2 -34 -34 -34 -33 0 -35 -2 -38 -37 -3 -36 -5
-38 -40 -41 -36 -3 -38 -5 -38 -38 0 -32 -2 -34 -35 -34 -33 0 -35 -2 -35 -35
0 -34 -1 -35 -40 -35 -39 0 -40 -1 -40 -35 l0 -35 -64 0 -65 0 -3 -38 c-3 -35
-5 -37 -40 -40 -36 -3 -38 -5 -38 -38 0 -32 -2 -34 -35 -34 -33 0 -35 -2 -35
-35 0 -34 -1 -35 -40 -35 -39 0 -40 -1 -40 -35 l0 -35 -70 0 -70 0 0 -40 c0
-39 -1 -40 -34 -40 -32 0 -35 -3 -38 -32 -3 -30 -6 -33 -40 -36 -36 -3 -38 -5
-38 -38 l0 -34 -70 0 -70 0 0 -35 c0 -33 -2 -35 -35 -35 -33 0 -35 -2 -35 -34
l0 -34 -75 -7 -75 -7 0 -34 c0 -32 -2 -34 -35 -34 -33 0 -35 -2 -35 -35 0 -34
-1 -35 -40 -35 -39 0 -40 -1 -40 -35 l0 -35 -70 0 -70 0 0 -40 0 -40 -40 0
c-39 0 -40 -1 -40 -35 0 -27 -4 -34 -17 -33 -10 1 -42 0 -70 0 l-53 -2 0 -34
c0 -33 -2 -35 -37 -38 -34 -3 -38 -6 -41 -35 -3 -31 -4 -31 -73 -38 l-69 -7 0
-34 0 -34 -70 0 -70 0 0 -35 c0 -33 -2 -35 -35 -35 -33 0 -35 -2 -35 -35 l0
-35 -75 0 -75 0 0 -34 c0 -33 -2 -35 -37 -38 -35 -3 -38 -6 -41 -35 -3 -32 -3
-32 -73 -39 l-69 -7 0 -33 0 -34 -70 0 -70 0 0 -34 0 -33 -69 -7 c-70 -7 -70
-7 -73 -39 -3 -30 -6 -32 -45 -35 -40 -3 -43 -5 -43 -32 0 -28 -1 -29 -70 -36
l-70 -7 0 -33 0 -34 -70 0 -70 0 0 -35 0 -34 -72 -3 -73 -3 -3 -32 c-3 -31 -4
-31 -73 -38 l-69 -7 0 -34 0 -34 -75 0 -75 0 0 -35 0 -35 -70 0 -70 0 0 -34 0
-34 -75 -7 c-74 -7 -75 -7 -75 -35 0 -28 -1 -28 -75 -35 l-75 -7 0 -34 0 -34
-70 0 -70 0 0 -35 0 -35 -89 0 c-109 0 -121 -4 -121 -40 0 -27 -1 -28 -75 -35
-74 -7 -75 -7 -75 -35 0 -28 -1 -28 -75 -35 l-75 -7 0 -34 0 -34 -105 0 -105
0 0 -35 0 -35 -75 0 -75 0 0 -34 0 -33 -61 -7 c-34 -3 -84 -6 -110 -6 l-49 0
0 -35 0 -35 -105 0 -105 0 0 -35 0 -35 -75 0 -75 0 0 -35 0 -35 -110 0 -110 0
0 -35 0 -35 -49 0 c-26 0 -76 -3 -110 -6 -58 -7 -61 -8 -61 -34 0 -25 -4 -28
-52 -34 -29 -3 -79 -6 -110 -6 l-58 0 0 -35 0 -35 -94 0 c-51 0 -114 -3 -140
-6 -43 -6 -46 -9 -46 -35 0 -29 -1 -29 -57 -29 -32 0 -82 -3 -110 -6 -49 -6
-53 -9 -53 -34 0 -26 -3 -27 -61 -34 -34 -3 -100 -6 -145 -6 l-84 0 0 -35 0
-35 -145 0 -145 0 0 -35 0 -35 -99 0 c-54 0 -119 -3 -145 -6 -42 -6 -46 -9
-46 -34 l0 -27 -150 -8 -150 -7 0 -28 c0 -25 -3 -28 -52 -34 -29 -3 -110 -6
-180 -6 l-128 0 0 -29 c0 -27 -3 -29 -52 -35 -29 -3 -126 -6 -215 -6 l-163 0
0 -35 0 -35 -167 0 c-93 0 -192 -3 -220 -6 -49 -6 -53 -9 -53 -34 l0 -27 -167
-6 c-91 -4 -222 -7 -290 -7 l-123 0 0 -29 c0 -27 -2 -28 -61 -35 -34 -3 -214
-6 -400 -6 l-339 0 0 -35 0 -35 -1305 0 -1305 0 0 35 0 35 -302 0 c-167 0
-347 3 -400 7 l-98 6 0 29 0 28 -93 0 c-52 0 -169 3 -260 7 l-167 6 0 27 0 27
-107 6 c-58 4 -171 7 -250 7 l-143 0 0 35 0 35 -167 0 c-93 0 -192 3 -220 6
-50 6 -53 8 -53 35 l0 29 -92 0 c-51 0 -117 3 -145 6 -49 6 -53 9 -53 34 l0
27 -112 6 c-62 4 -143 7 -180 7 l-67 0 -3 33 -3 32 -147 3 -148 3 0 34 0 35
-140 0 -140 0 0 35 0 35 -92 0 c-51 0 -117 3 -145 6 -49 6 -53 9 -53 34 0 26
-3 27 -61 34 -34 3 -83 6 -110 6 -47 0 -48 1 -51 33 l-3 32 -107 3 -108 3 0
34 0 35 -110 0 -110 0 0 35 0 35 -57 0 c-32 0 -82 3 -110 6 -49 6 -53 9 -53
34 0 25 -4 28 -52 34 -29 3 -79 6 -110 6 l-58 0 0 35 0 35 -110 0 -110 0 0 35
0 35 -52 0 c-29 0 -77 3 -105 6 -50 6 -53 9 -53 34 0 27 -2 28 -75 35 -74 7
-75 7 -75 34 0 26 -3 29 -52 35 -29 3 -77 6 -105 6 l-53 0 0 35 0 35 -75 0
-75 0 0 35 0 35 -59 0 c-32 0 -79 3 -105 6 -42 6 -46 9 -46 34 0 27 -2 28 -74
35 l-75 7 -3 31 -3 32 -72 3 -73 3 0 34 0 35 -75 0 -75 0 0 35 0 35 -52 0
c-29 0 -76 3 -105 6 -49 6 -52 8 -55 38 -3 31 -3 31 -70 34 l-67 3 -3 32 -3
32 -72 3 -73 3 0 34 0 34 -72 3 -73 3 -3 32 c-3 31 -4 31 -72 38 -68 7 -69 7
-72 38 -3 29 -7 32 -40 35 -36 3 -38 5 -38 38 l0 34 -70 0 -70 0 0 35 0 35
-75 0 -75 0 0 35 0 35 -110 0 -110 0 0 -29 c0 -27 -3 -29 -52 -35 -29 -3 -95
-6 -145 -6 l-93 0 0 -35 0 -35 -140 0 -140 0 0 -35 0 -35 -92 0 c-51 0 -117
-3 -145 -6 -49 -6 -53 -9 -53 -34 0 -26 -3 -27 -61 -34 -34 -3 -86 -6 -115 -6
-53 0 -54 -1 -54 -29 0 -26 -3 -29 -46 -35 -26 -3 -89 -6 -140 -6 l-94 0 0
-35 0 -35 -99 0 c-54 0 -119 -3 -145 -6 -43 -6 -46 -9 -46 -35 0 -28 -1 -29
-54 -29 -29 0 -81 -3 -115 -6 -58 -7 -61 -8 -61 -34 0 -25 -4 -28 -52 -34 -29
-3 -95 -6 -145 -6 l-93 0 0 -35 0 -35 -140 0 -140 0 0 -34 0 -35 -117 -5
c-166 -7 -170 -7 -170 -20 1 -44 -2 -46 -57 -46 -29 0 -81 -3 -115 -6 -50 -6
-61 -10 -56 -23 11 -37 -9 -43 -149 -49 l-136 -5 0 -33 0 -34 -145 0 -145 0 0
-35 0 -35 -92 -1 c-51 -1 -102 -2 -113 -3 -15 -1 -21 -9 -23 -32 l-3 -32 -139
-7 -139 -7 -3 -32 -3 -31 -142 -3 -143 -3 0 -34 0 -35 -115 0 -115 0 0 -35 0
-35 -87 0 c-49 0 -112 -3 -140 -6 -50 -6 -53 -9 -53 -34 l0 -28 -144 -7 -145
-7 -3 -32 -3 -31 -110 -5 c-96 -4 -110 -7 -111 -22 -1 -10 -2 -25 -3 -33 -1
-13 -24 -15 -141 -15 l-140 0 0 -34 0 -34 -145 -7 -145 -7 0 -28 c0 -25 -3
-28 -52 -34 -29 -3 -95 -6 -146 -6 -64 0 -91 -3 -87 -11 4 -6 14 -8 22 -5 8 4
11 1 8 -5 -4 -6 -13 -8 -21 -5 -10 4 -14 -2 -14 -19 l0 -25 -110 0 -110 0 0
-35 0 -35 -145 0 -145 0 0 -35 0 -35 -57 0 c-32 0 -82 -3 -110 -6 -49 -6 -53
-9 -53 -34 0 -26 -3 -27 -61 -34 -34 -3 -100 -6 -145 -6 l-84 0 0 -36 c0 -31
-3 -35 -23 -34 -12 1 -77 2 -144 1 l-123 -1 0 -35 0 -35 -92 0 c-51 0 -117 -3
-145 -6 -49 -6 -53 -9 -53 -34 0 -26 -3 -27 -61 -34 -34 -3 -84 -6 -110 -6
-47 0 -49 -1 -49 -29 0 -27 -3 -29 -52 -35 -29 -3 -95 -6 -145 -6 l-93 0 0
-35 0 -35 -70 0 -70 0 0 35 c0 34 -1 35 -40 35 l-40 0 0 40 c0 39 -1 40 -35
40 -33 0 -35 2 -35 35 0 33 -2 35 -35 35 -33 0 -35 2 -35 35 0 34 -1 35 -40
35 -39 0 -40 1 -40 35 0 33 -2 35 -35 35 -34 0 -35 1 -35 40 0 39 -1 40 -35
40 -33 0 -35 2 -35 35 0 33 -2 35 -35 35 -33 0 -35 2 -35 35 0 34 -1 35 -40
35 -39 0 -40 1 -40 35 0 33 -2 35 -35 35 -34 0 -35 1 -35 40 0 39 -1 40 -35
40 -33 0 -35 2 -35 35 0 33 -2 35 -35 35 -33 0 -35 2 -35 35 0 34 -1 35 -40
35 l-40 0 0 40 c0 39 -1 40 -35 40 l-35 0 0 70 0 70 35 0 35 0 0 93 c0 50 3
116 6 145 6 49 8 52 35 52 29 0 29 1 29 58 0 31 3 81 6 110 6 48 9 52 34 52
25 0 28 4 34 53 3 28 6 94 6 145 l0 92 35 0 35 0 0 145 0 145 35 0 34 0 3 108
3 107 31 3 32 3 7 145 7 144 34 0 34 0 0 145 0 145 35 0 35 0 0 109 c0 106 1
110 22 113 13 2 23 8 23 15 0 6 4 15 9 20 5 4 7 3 3 -2 -3 -6 -2 -17 3 -25 5
-8 9 22 9 76 0 49 4 115 7 147 6 54 8 57 34 57 l28 0 7 145 7 145 34 0 34 0 0
140 0 140 35 0 35 0 0 115 0 115 35 0 35 0 0 84 c0 45 3 111 6 145 7 58 8 61
34 61 25 0 28 4 34 53 3 28 6 91 6 140 l0 87 35 0 35 0 0 115 0 115 35 0 34 0
3 143 3 142 31 3 31 3 8 140 7 139 29 0 c16 0 29 6 30 13 1 6 2 26 4 42 1 17
3 63 4 103 l1 72 35 0 35 0 0 145 0 145 35 0 35 0 0 94 c0 51 3 114 6 140 6
42 9 46 34 46 31 0 28 -15 43 200 2 29 6 34 21 32 17 -3 18 -2 7 12 -7 9 -17
13 -22 10 -5 -3 -6 2 -3 10 3 9 10 16 16 16 5 0 7 -4 4 -9 -3 -4 3 -16 14 -26
18 -16 20 -16 20 -2 0 10 -6 17 -12 17 -9 0 -8 4 2 10 13 9 13 10 0 10 -12 1
-11 3 3 11 14 9 17 26 17 119 l0 110 35 0 34 0 3 143 3 142 33 3 32 3 0 87 c0
48 3 111 6 140 6 48 9 52 34 52 26 0 27 3 34 61 3 34 6 86 6 115 0 53 1 54 29
54 26 0 29 3 35 46 3 26 6 89 6 140 l0 94 35 0 35 0 0 99 c0 54 3 119 6 145 6
43 9 46 35 46 l29 0 1 100 c1 55 2 106 3 113 0 6 15 13 32 15 30 3 32 6 38 55
3 29 6 91 6 140 l0 87 35 0 35 0 0 145 0 145 35 0 34 0 3 112 3 113 33 3 32 3
0 140 0 139 -35 0 -35 0 0 70 0 70 -35 0 c-35 0 -35 0 -35 45 0 45 0 45 -35
45 l-34 0 -3 67 -3 68 -32 3 c-31 3 -31 4 -38 72 -7 68 -7 69 -38 72 l-32 3
-3 73 -3 72 -34 0 -34 0 -3 73 -3 72 -32 3 c-30 3 -33 6 -35 40 0 20 -2 42 -3
47 -2 6 -3 20 -4 33 -1 17 -7 22 -30 22 -27 0 -29 3 -35 53 -3 28 -6 76 -6
105 l0 52 -35 0 -35 0 0 75 0 75 -35 0 -34 0 -3 73 -3 72 -32 3 c-31 3 -31 4
-38 73 -7 67 -8 69 -35 69 -25 0 -28 3 -34 53 -3 28 -6 78 -6 110 l0 57 -35 0
-35 0 0 75 0 75 -35 0 -35 0 0 53 c0 28 -3 76 -6 105 -6 49 -9 52 -35 52 -27
0 -27 1 -34 75 -7 73 -8 75 -35 75 -25 0 -28 3 -34 53 -3 28 -6 76 -6 105 l0
52 -35 0 -35 0 0 110 0 110 -35 0 -35 0 0 58 c0 31 -3 81 -6 110 -6 49 -9 52
-35 52 -27 0 -27 1 -35 78 -5 42 -8 92 -7 110 1 25 -3 32 -19 32 -11 0 -16 -4
-12 -11 4 -8 0 -8 -15 0 -19 11 -21 20 -21 121 l0 110 -35 0 -34 0 -3 108 -3
107 -32 3 c-32 3 -33 4 -33 51 0 27 -3 76 -6 110 -7 58 -8 61 -34 61 -25 0
-28 4 -34 52 -3 29 -6 95 -6 146 l0 92 -35 0 -35 0 0 140 0 140 -35 0 -34 0
-3 148 -3 147 -32 3 -33 3 0 67 c0 37 -3 118 -7 180 l-6 112 -27 0 c-25 0 -28
4 -34 53 -3 28 -6 94 -6 145 l0 92 -35 0 -35 0 0 220 0 220 -34 0 -33 0 -5
230 c-3 127 -8 233 -11 236 -3 3 -14 1 -24 -5 -15 -7 -20 -7 -20 4 0 7 6 11
14 8 9 -4 11 0 7 11 -3 9 -12 16 -19 16 -14 0 -25 153 -25 373 l0 147 -30 0
c-30 0 -30 1 -31 55 -1 30 -3 60 -4 65 -1 6 -3 159 -4 340 l-1 330 -35 0 -35
0 0 1310 0 1310 35 0 35 0 0 339 c0 186 3 366 6 400 7 59 8 61 35 61 l29 0 0
123 c0 68 3 199 7 290 l6 167 27 0 c26 0 27 3 34 61 3 34 6 133 6 220 l0 159
35 0 35 0 0 215 0 215 35 0 35 0 0 128 c0 70 3 151 6 180 6 49 9 52 34 52 l28
0 7 150 7 150 28 0 c25 0 28 4 34 46 3 26 6 93 6 149 l0 103 35 -4 35 -3 0
145 0 144 35 0 35 0 0 93 c0 50 3 116 6 145 6 48 9 52 34 52 25 0 28 4 34 53
3 28 6 78 6 110 0 56 0 57 29 57 26 0 29 3 35 46 3 26 6 89 6 140 l0 94 35 0
35 0 0 110 0 110 35 0 35 0 0 49 c0 26 3 76 6 110 l7 61 33 0 34 0 0 110 0
110 35 0 35 0 0 75 0 75 35 0 35 0 0 105 0 105 35 0 35 0 0 58 c0 31 3 81 6
110 7 51 7 52 40 52 l34 0 0 75 0 75 35 0 35 0 0 105 0 105 35 0 35 0 0 75 0
75 34 0 34 0 7 75 c7 73 8 75 35 75 25 0 28 4 34 46 3 26 6 73 6 105 l0 59 35
0 34 0 3 73 3 72 32 3 c31 3 31 4 38 73 7 67 8 69 35 69 28 0 28 1 35 75 l7
75 34 0 34 0 0 70 0 70 35 0 35 0 0 75 0 75 34 0 33 0 7 69 c7 70 7 70 39 73
l32 3 3 73 3 72 34 0 35 0 0 70 0 70 34 0 34 0 7 75 c7 74 7 75 35 75 26 0 29
4 32 38 3 34 6 37 35 40 32 3 32 3 39 73 l7 69 33 0 34 0 0 70 0 70 35 0 c34
0 35 1 35 40 0 35 3 40 23 40 23 0 49 13 48 24 -1 3 -1 31 -1 61 l0 55 40 0
40 0 0 70 0 70 35 0 c34 0 35 1 35 40 0 39 1 40 35 40 l35 0 0 70 0 70 34 0
34 0 7 69 c7 69 7 70 38 73 29 3 32 7 35 41 3 35 5 37 38 37 l34 0 0 70 0 70
35 0 c34 0 35 1 35 40 0 39 1 40 34 40 l34 0 7 70 7 70 34 0 c33 0 34 1 34 40
0 39 1 40 35 40 33 0 35 2 35 35 0 33 2 35 34 35 l34 0 7 75 7 75 34 0 c32 0
34 2 34 35 0 33 2 35 35 35 l35 0 0 70 0 70 34 0 c33 0 35 2 38 38 3 34 6 37
36 40 29 3 32 6 32 38 0 32 2 34 34 34 l34 0 7 70 7 70 34 0 c33 0 34 1 34 40
0 39 1 40 35 40 33 0 35 2 35 35 0 33 2 35 34 35 33 0 35 2 38 38 3 35 5 37
41 40 l37 3 0 65 0 64 35 0 c34 0 35 1 35 40 0 39 1 40 35 40 33 0 35 2 35 35
0 33 2 35 34 35 33 0 35 2 38 38 3 35 5 37 41 40 35 3 37 5 37 38 0 32 2 34
35 34 l35 0 0 69 0 70 38 3 c35 3 37 5 40 41 3 35 5 37 38 37 32 0 34 2 34 35
0 33 2 35 35 35 33 0 35 2 35 35 0 33 2 35 34 35 33 0 35 2 38 38 3 34 6 37
36 40 29 3 32 6 32 38 0 32 2 34 35 34 33 0 35 2 35 35 0 34 1 35 40 35 l40 0
0 40 c0 39 1 40 34 40 l34 0 7 64 c6 64 7 65 38 68 29 3 32 6 35 41 3 35 5 37
38 37 32 0 34 2 34 35 0 33 2 35 35 35 33 0 35 2 35 34 0 33 2 35 38 38 35 3
37 5 40 41 3 35 5 37 38 37 32 0 34 2 34 35 0 33 2 35 35 35 33 0 35 2 35 35
0 33 2 35 35 35 33 0 35 2 35 34 0 33 2 35 38 38 35 3 37 5 40 41 3 35 5 37
38 37 32 0 34 2 34 35 0 33 2 35 35 35 33 0 35 2 35 35 0 33 2 35 34 35 19 0
38 5 41 10 4 6 20 9 37 6 23 -3 28 -2 19 7 -14 14 -15 30 -1 22 6 -4 10 -3 9
2 -4 25 4 33 36 33 33 0 35 2 35 35 0 34 1 35 40 35 l40 0 0 40 c0 39 1 40 35
40 33 0 35 2 35 35 0 33 2 35 34 35 32 0 35 3 38 33 3 29 6 32 41 35 35 3 37
5 37 38 0 32 2 34 35 34 33 0 35 2 35 35 0 33 2 35 35 35 33 0 35 2 35 34 0
33 2 35 38 38 34 3 37 6 40 36 2 23 8 32 23 33 10 1 24 3 29 4 6 1 28 3 50 4
39 1 40 2 40 36 0 33 2 35 34 35 33 0 35 2 38 38 3 35 5 37 41 40 35 3 37 5
37 37 0 32 2 34 38 38 71 7 -4774 4 -4898 -4z m690 -4894 c11 -13 10 -14 -4
-9 -9 3 -16 10 -16 15 0 13 6 11 20 -6z m-2027 -4956 c-9 -9 -12 -7 -10 9 1
14 5 18 11 12 7 -7 6 -14 -1 -21z m357 -10320 c0 -4 -7 -9 -15 -13 -9 -3 -15
0 -15 8 0 7 7 13 15 13 8 0 15 -4 15 -8z m-293 -9564 c4 -4 2 -5 -4 -1 -12 6
-18 -5 -14 -26 0 -5 -3 -8 -9 -8 -5 0 -9 11 -8 24 2 23 19 29 35 11z m2623
-2655 c0 -5 -2 -10 -4 -10 -3 0 -8 5 -11 10 -3 6 -1 10 4 10 6 0 11 -4 11 -10z"/>
<path d="M8600 23134 c-538 -50 -972 -219 -1239 -483 -256 -252 -350 -531
-296 -881 36 -243 137 -436 321 -616 246 -242 716 -455 1327 -603 89 -21 241
-58 337 -81 528 -127 820 -284 919 -494 122 -258 22 -528 -243 -656 -178 -86
-363 -115 -680 -107 -560 14 -1032 185 -1431 517 -234 194 -347 234 -489 171
-59 -25 -152 -119 -191 -191 -27 -50 -30 -64 -30 -145 0 -134 31 -183 213
-336 439 -368 936 -580 1562 -666 184 -25 685 -25 865 0 300 43 599 143 789
265 209 134 347 286 442 486 76 161 89 230 88 461 -1 183 -3 208 -27 300 -63
237 -203 445 -402 600 -309 240 -732 408 -1489 595 -312 76 -546 153 -702 230
-148 72 -241 155 -293 260 -110 226 -25 453 218 579 167 86 334 121 618 128
273 7 433 -13 648 -84 224 -73 393 -177 555 -342 125 -127 172 -160 265 -187
74 -21 183 -15 250 15 26 11 73 47 105 80 167 171 124 377 -135 635 -267 267
-676 453 -1158 527 -103 16 -192 21 -402 24 -148 1 -290 1 -315 -1z"/>
<path d="M11999 23126 c-114 -32 -200 -103 -248 -205 l-26 -56 0 -2025 0
-2025 26 -56 c68 -145 200 -219 389 -219 148 0 254 42 338 134 96 106 87 -114
87 2166 0 1919 -1 2007 -18 2058 -35 100 -148 196 -271 228 -63 17 -215 17
-277 0z"/>
<path d="M15490 23134 c-549 -51 -990 -218 -1335 -505 -398 -332 -650 -834
-719 -1429 -21 -180 -21 -550 0 -730 124 -1075 797 -1752 1894 -1907 196 -28
695 -25 885 5 532 83 935 274 1231 585 192 200 315 434 376 710 21 94 23 127
23 432 l0 330 -27 80 c-65 192 -187 299 -408 356 -83 22 -98 23 -815 26 -509
3 -750 1 -795 -7 -130 -22 -212 -80 -258 -180 -36 -77 -36 -202 0 -281 39 -86
99 -136 203 -170 30 -9 177 -14 575 -18 l536 -6 49 -25 c38 -20 55 -37 75 -75
24 -48 25 -56 24 -220 -2 -138 -6 -185 -23 -248 -95 -356 -436 -583 -959 -638
-168 -17 -489 -7 -625 20 -726 146 -1127 714 -1127 1596 0 536 143 952 427
1241 184 187 405 304 688 364 128 27 468 39 626 21 289 -33 513 -110 708 -244
42 -29 131 -107 199 -175 130 -130 178 -161 285 -188 81 -21 190 -14 254 17
64 31 158 126 188 190 29 64 34 162 10 229 -18 52 -87 149 -162 231 -264 284
-752 508 -1288 589 -110 17 -197 22 -405 25 -146 1 -285 1 -310 -1z"/>
<path d="M20170 23128 c-974 -90 -1596 -666 -1680 -1558 -7 -78 -10 -541 -8
-1440 l3 -1325 22 -47 c45 -98 151 -181 264 -207 63 -15 205 -13 265 3 122 32
223 117 266 224 l23 57 6 1380 c6 1515 1 1412 65 1605 54 161 162 320 287 420
77 62 257 152 357 179 125 34 266 51 430 51 266 0 450 -35 625 -119 262 -125
424 -335 503 -651 l26 -105 6 -1380 c5 -1313 6 -1382 24 -1431 40 -111 138
-197 261 -229 67 -17 208 -19 274 -4 130 30 236 123 271 238 21 66 21 81 17
1442 -3 1364 -3 1375 -25 1489 -55 287 -150 520 -294 716 -28 38 -101 119
-162 179 -288 287 -683 458 -1179 510 -159 16 -488 18 -647 3z"/>
<path d="M23630 23124 c-105 -28 -198 -105 -243 -202 l-22 -47 0 -2035 0
-2035 22 -47 c45 -98 151 -181 264 -207 65 -15 197 -13 262 4 157 41 260 144
286 289 15 81 15 3894 1 3985 -24 148 -119 247 -279 295 -68 20 -216 20 -291
0z"/>
<path d="M29192 23125 c-111 -31 -183 -86 -233 -177 l-34 -63 0 -555 c0 -617
3 -652 70 -916 191 -749 744 -1238 1530 -1356 20 -3 20 -13 25 -628 l5 -625
24 -53 c32 -70 122 -153 198 -182 73 -28 217 -38 305 -20 124 24 226 99 280
208 l23 47 5 624 5 624 115 23 c609 120 1053 454 1301 979 89 189 150 399 186
645 24 161 31 1083 9 1169 -28 110 -89 180 -204 234 -114 53 -310 49 -425 -10
-74 -37 -140 -104 -173 -176 l-29 -62 -6 -530 c-5 -486 -8 -539 -27 -641 -57
-294 -149 -493 -303 -658 -155 -167 -335 -261 -595 -313 -123 -24 -421 -24
-554 1 -517 95 -812 428 -906 1022 -14 88 -18 207 -23 619 l-6 510 -28 56
c-35 72 -110 142 -194 182 -61 28 -78 31 -178 34 -75 2 -127 -2 -163 -12z"/>
<path d="M25955 23073 c-422 -38 -711 -271 -808 -650 l-22 -88 0 -1765 0
-1765 26 -55 c65 -138 200 -210 389 -210 186 0 312 69 387 212 l28 53 5 845 5
845 885 5 c608 4 894 9 915 16 104 38 181 109 209 191 20 60 20 165 0 233 -21
71 -97 148 -179 181 l-60 24 -885 5 -885 5 0 515 c0 473 1 519 18 570 24 71
57 113 115 147 l47 28 1030 5 1030 6 62 22 c76 29 145 88 181 156 23 45 26 62
26 146 0 111 -12 147 -74 214 -49 53 -120 90 -204 105 -41 8 -392 10 -1130 9
-589 -1 -1089 -3 -1111 -5z"/>
<path d="M2990 18370 c0 -5 5 -10 10 -10 6 0 10 5 10 10 0 6 -4 10 -10 10 -5
0 -10 -4 -10 -10z"/>
<path d="M24860 16090 c-267 -154 -486 -284 -488 -289 -3 -8 926 -549 971
-566 16 -7 17 8 17 229 l0 236 925 0 925 0 0 100 0 100 -925 0 -925 0 0 235
c0 129 -3 235 -7 235 -5 0 -226 -126 -493 -280z"/>
<path d="M7985 16153 c-187 -29 -332 -119 -392 -242 -24 -49 -28 -68 -28 -146
0 -76 4 -99 26 -145 70 -149 194 -219 557 -311 308 -78 425 -145 452 -260 32
-133 -45 -255 -190 -300 -93 -29 -251 -36 -368 -15 -151 26 -266 83 -373 183
-39 37 -53 44 -80 41 -41 -4 -74 -45 -65 -82 9 -36 103 -127 173 -169 139 -81
264 -115 455 -124 303 -14 504 73 591 256 26 55 30 75 31 150 0 112 -32 189
-109 259 -98 90 -212 139 -490 213 -104 28 -222 64 -261 80 -137 57 -191 130
-182 249 8 115 92 188 246 216 241 43 465 -13 586 -147 45 -50 61 -62 94 -66
34 -5 42 -2 60 22 27 34 27 46 2 94 -44 87 -199 187 -350 226 -64 16 -320 29
-385 18z"/>
<path d="M13044 16135 l-25 -25 3 -667 c3 -663 3 -668 25 -708 27 -51 67 -89
118 -112 36 -16 81 -18 472 -21 l433 -3 25 25 c30 30 32 56 6 87 l-19 24 -420
5 c-470 6 -451 2 -472 79 -6 22 -10 277 -10 667 l0 631 -23 21 c-32 30 -81 29
-113 -3z"/>
<path d="M9097 16130 c-65 -51 -51 -154 25 -185 55 -22 100 -11 138 31 42 49
41 95 -4 140 -30 30 -41 34 -84 34 -34 0 -57 -6 -75 -20z"/>
<path d="M28453 16125 c-17 -12 -23 -26 -23 -54 0 -65 1 -66 307 -69 l273 -3
0 -662 c0 -427 4 -675 10 -699 12 -43 34 -58 84 -58 25 0 40 7 55 26 21 26 21
34 21 710 l0 683 274 3 c253 3 276 4 295 22 24 22 27 64 7 92 -14 18 -34 19
-648 22 -563 2 -635 1 -655 -13z"/>
<path d="M32391 16114 c-20 -25 -21 -39 -21 -229 l0 -203 -86 -3 c-76 -4 -88
-7 -105 -28 -24 -29 -24 -53 -1 -82 16 -19 31 -23 105 -27 l86 -4 3 -372 3
-371 28 -57 c30 -61 65 -96 131 -131 34 -18 58 -22 146 -22 88 0 113 4 154 23
67 31 130 84 151 128 16 35 16 37 -2 63 -32 43 -72 40 -129 -10 -61 -53 -100
-69 -164 -69 -76 0 -117 21 -140 72 -18 40 -20 68 -20 395 l0 351 173 4 c197
3 207 7 207 69 0 61 -26 69 -220 69 l-160 0 0 204 c0 191 -1 205 -21 230 -16
20 -29 26 -59 26 -30 0 -43 -6 -59 -26z"/>
<path d="M9119 15681 l-24 -19 -3 -514 c-2 -510 -2 -515 18 -541 16 -21 30
-27 58 -27 84 1 82 -14 82 565 l0 506 -25 24 c-29 30 -74 32 -106 6z"/>
<path d="M10006 15690 c-225 -40 -379 -174 -441 -380 -24 -83 -30 -240 -11
-328 59 -279 271 -424 600 -409 175 7 268 45 387 155 l59 54 0 -133 c-1 -145
-8 -194 -42 -266 -107 -228 -535 -276 -745 -82 -51 47 -91 52 -128 14 -37 -36
-32 -62 24 -116 94 -91 230 -138 421 -146 304 -12 513 106 602 343 22 58 23
66 26 657 l3 597 -25 25 c-33 33 -79 33 -111 0 -23 -22 -25 -32 -25 -111 l0
-87 -62 60 c-117 111 -216 153 -378 158 -58 2 -127 0 -154 -5z m277 -145 c77
-20 130 -48 184 -98 80 -73 118 -156 129 -277 26 -278 -194 -478 -504 -457
-150 10 -251 59 -319 154 -59 84 -84 213 -64 341 27 176 128 292 292 336 71
19 210 20 282 1z"/>
<path d="M11085 15675 l-25 -24 0 -506 c0 -579 -2 -564 81 -565 24 0 42 7 55
21 18 19 19 45 24 338 7 369 11 387 105 490 77 83 166 122 290 129 124 6 191
-13 250 -73 74 -73 77 -95 84 -513 6 -345 7 -364 25 -378 29 -21 82 -18 106 6
19 19 20 33 20 389 0 405 -3 431 -64 536 -131 223 -545 234 -760 19 l-56 -56
0 71 c0 75 -16 124 -45 135 -33 12 -66 5 -90 -19z"/>
<path d="M14614 15690 c-146 -27 -304 -99 -334 -152 -13 -25 -13 -31 0 -55 28
-50 58 -51 149 -4 143 73 312 100 451 70 69 -15 139 -64 170 -119 21 -38 25
-61 28 -154 l4 -108 -53 36 c-79 54 -164 78 -295 83 -203 10 -346 -36 -438
-137 -56 -64 -76 -121 -76 -224 0 -68 5 -91 28 -141 64 -134 211 -205 427
-205 159 0 263 33 358 112 l47 39 0 -34 c0 -47 18 -95 40 -107 31 -16 79 -11
100 10 19 19 20 33 20 394 0 347 -1 379 -20 439 -35 113 -141 207 -274 244
-63 17 -263 25 -332 13z m292 -554 c106 -33 174 -106 174 -185 0 -131 -128
-222 -332 -237 -153 -11 -273 25 -332 99 -26 32 -31 49 -34 105 -8 168 107
246 353 238 70 -2 141 -11 171 -20z"/>
<path d="M15569 15681 l-24 -19 0 -520 c0 -497 1 -521 19 -541 29 -32 88 -29
115 5 20 26 21 39 21 299 0 153 5 297 11 330 36 197 200 325 415 325 174 0
268 -74 294 -231 5 -35 10 -209 10 -386 0 -310 1 -324 20 -343 26 -26 80 -26
111 -1 l24 19 3 319 c2 186 -1 351 -8 398 -32 247 -204 379 -470 362 -142 -10
-250 -56 -347 -150 l-63 -60 0 82 c0 74 -2 84 -25 106 -29 30 -74 32 -106 6z"/>
<path d="M17305 15693 c-123 -16 -253 -82 -334 -168 -103 -111 -145 -229 -144
-410 0 -75 5 -129 17 -170 57 -193 195 -318 397 -361 91 -19 289 -14 364 9 69
22 165 82 225 140 l50 48 0 -143 c0 -161 -11 -214 -59 -290 -126 -199 -532
-226 -724 -49 -61 56 -125 54 -147 -5 -26 -66 92 -160 270 -215 66 -21 94 -24
230 -24 141 1 162 3 236 28 156 52 265 154 326 305 l23 57 3 606 3 607 -27 21
c-35 28 -66 27 -101 -3 -26 -22 -28 -31 -31 -108 l-4 -84 -59 57 c-130 125
-312 179 -514 152z m247 -144 c120 -26 238 -114 284 -214 53 -114 58 -276 11
-379 -86 -187 -328 -287 -565 -231 -129 31 -209 93 -260 204 -22 46 -27 75
-30 160 -3 62 1 127 8 160 34 154 139 259 295 297 64 16 189 17 257 3z"/>
<path d="M18369 15687 c-37 -28 -39 -50 -39 -364 0 -345 8 -421 49 -510 77
-163 225 -241 441 -230 146 7 236 48 347 158 l53 53 0 -87 c0 -74 3 -90 20
-107 28 -28 90 -27 116 1 18 20 19 46 22 518 1 273 0 506 -3 519 -14 59 -80
80 -129 41 l-26 -20 0 -278 c0 -302 -6 -355 -49 -447 -68 -145 -201 -220 -380
-212 -73 2 -97 8 -147 33 -63 32 -112 92 -135 163 -8 24 -14 159 -18 390 l-6
354 -24 19 c-26 21 -68 24 -92 6z"/>
<path d="M20007 15685 c-142 -27 -301 -104 -313 -151 -10 -39 3 -70 35 -84 28
-11 38 -8 123 34 119 60 211 79 343 74 148 -7 233 -51 276 -143 14 -31 19 -64
19 -143 l0 -103 -33 25 c-94 72 -219 101 -396 93 -177 -8 -293 -57 -368 -156
-74 -96 -83 -246 -23 -360 73 -136 225 -199 455 -188 137 6 215 31 308 98 l67
49 0 -46 c0 -45 13 -82 34 -96 23 -16 83 -8 102 13 18 20 19 43 22 357 3 382
-3 447 -52 537 -42 78 -129 146 -224 175 -89 29 -267 35 -375 15z m254 -535
c219 -41 306 -210 174 -336 -143 -138 -518 -135 -610 5 -15 22 -28 60 -32 89
-13 115 63 210 194 241 53 13 210 13 274 1z"/>
<path d="M21355 15689 c-224 -37 -392 -191 -446 -409 -19 -80 -17 -261 5 -335
43 -144 128 -250 250 -310 104 -51 196 -68 341 -62 176 7 273 46 388 155 l57
55 0 -136 c0 -161 -10 -217 -53 -288 -62 -104 -177 -163 -341 -175 -153 -12
-289 28 -389 114 -57 50 -95 55 -132 17 -29 -28 -30 -36 -10 -74 29 -58 155
-134 276 -167 49 -14 101 -18 219 -18 144 0 161 2 235 27 137 48 235 127 294
237 61 113 61 118 61 753 l0 578 -25 24 c-33 33 -70 32 -106 -4 -27 -28 -29
-34 -29 -110 l0 -81 -59 58 c-134 132 -327 186 -536 151z m325 -157 c80 -32
154 -87 194 -145 57 -84 69 -128 70 -252 1 -135 -21 -198 -94 -278 -134 -147
-391 -191 -591 -101 -148 66 -226 240 -198 441 25 182 124 301 288 345 91 25
254 19 331 -10z"/>
<path d="M22808 15690 c-220 -40 -376 -171 -434 -365 -26 -84 -26 -286 0 -370
53 -176 159 -284 334 -343 70 -24 91 -26 242 -26 182 0 245 11 356 65 79 39
164 113 164 143 0 25 -44 76 -65 76 -7 0 -37 -16 -66 -36 -80 -54 -141 -82
-211 -99 -80 -19 -266 -19 -335 -1 -163 43 -257 144 -270 286 l-6 60 434 0
c431 0 435 0 479 23 29 14 53 36 68 62 20 35 22 50 19 125 -5 111 -29 164
-110 244 -67 67 -147 112 -252 141 -70 19 -278 28 -347 15z m340 -160 c123
-43 202 -128 210 -225 4 -44 1 -60 -13 -75 -17 -19 -33 -20 -423 -20 l-405 0
7 49 c18 139 116 243 265 283 92 25 270 19 359 -12z"/>
<path d="M30115 15694 c-227 -35 -405 -188 -449 -384 -20 -87 -20 -255 -1
-338 60 -254 266 -392 585 -392 204 0 367 54 480 160 39 37 41 80 4 109 -15
12 -32 21 -38 21 -7 0 -48 -24 -92 -53 -44 -29 -104 -61 -134 -71 -70 -23
-282 -33 -361 -17 -170 35 -277 142 -295 294 l-7 57 437 0 c478 0 479 0 529
59 80 96 48 280 -72 399 -56 56 -161 112 -256 138 -59 15 -271 27 -330 18z
m273 -149 c84 -20 148 -54 199 -107 49 -51 64 -85 65 -152 1 -37 -3 -52 -17
-62 -15 -11 -97 -14 -422 -14 l-404 0 6 38 c27 156 118 254 278 297 69 18 216
18 295 0z"/>
<path d="M31006 15679 c-19 -15 -26 -30 -26 -54 0 -39 -9 -28 228 -292 l162
-182 -204 -230 c-112 -126 -207 -239 -211 -250 -14 -46 40 -99 92 -89 9 2 106
102 214 223 109 121 201 221 207 223 5 1 98 -96 206 -218 118 -131 207 -222
221 -226 13 -3 33 -3 44 1 27 8 54 60 46 87 -4 11 -99 123 -211 250 l-204 229
107 121 c286 319 284 317 281 355 -4 45 -44 79 -82 69 -17 -4 -91 -79 -213
-216 -102 -116 -189 -210 -193 -210 -3 0 -82 86 -175 191 -228 257 -234 261
-289 218z"/>
<path d="M26220 14936 l0 -236 -930 0 -930 0 0 -100 0 -100 930 0 930 0 0
-236 c0 -132 4 -234 9 -232 22 8 981 564 980 568 0 4 -957 559 -981 568 -4 2
-8 -102 -8 -232z"/>
</g>
</svg>
