<?xml version="1.0" standalone="no"?>
<!DOCTYPE svg PUBLIC "-//W3C//DTD SVG 20010904//EN"
 "http://www.w3.org/TR/2001/REC-SVG-20010904/DTD/svg10.dtd">
<svg version="1.0" xmlns="http://www.w3.org/2000/svg"
 width="512.000000pt" height="512.000000pt" viewBox="0 0 512.000000 512.000000"
 preserveAspectRatio="xMidYMid meet">

<g transform="translate(0.000000,512.000000) scale(0.100000,-0.100000)"
fill="#000000" stroke="none">
<path d="M345 5106 c-83 -20 -146 -56 -211 -120 -65 -66 -105 -137 -123 -224
-15 -74 -16 -2159 0 -2234 17 -80 74 -182 132 -234 104 -93 201 -124 389 -124
l128 0 0 -235 c0 -260 4 -281 59 -328 46 -39 87 -43 194 -18 298 69 574 273
707 522 l31 59 260 0 259 0 0 -880 c0 -613 3 -895 11 -932 36 -168 179 -311
347 -347 74 -16 2159 -16 2234 0 171 36 310 175 347 347 16 75 16 2159 0 2234
-27 126 -115 242 -226 300 -89 47 -148 58 -298 58 l-124 0 -3 249 c-3 275 -3
274 -72 325 -76 57 -338 -16 -546 -152 -137 -89 -280 -244 -346 -373 l-24 -49
-260 0 -260 0 0 883 c0 750 -2 891 -15 940 -45 172 -176 301 -343 336 -79 16
-2178 14 -2247 -3z m2226 -308 c25 -14 46 -37 59 -63 20 -41 20 -62 20 -1090
0 -1024 0 -1050 -20 -1090 -11 -22 -34 -49 -52 -60 -31 -19 -57 -20 -555 -25
-508 -5 -522 -6 -550 -26 -16 -12 -53 -68 -88 -135 -51 -96 -74 -128 -150
-205 -83 -84 -189 -159 -253 -178 l-22 -7 0 218 c0 240 -5 265 -63 307 -26 19
-46 21 -260 26 -261 6 -276 10 -316 80 -21 38 -21 40 -21 1096 1 1190 -5 1101
76 1150 l39 24 1059 0 1058 0 39 -22z m1589 -1815 c0 -240 5 -265 63 -307 26
-19 46 -21 260 -26 261 -6 276 -10 316 -80 21 -38 21 -40 21 -1094 0 -1039 0
-1057 -20 -1096 -13 -26 -34 -47 -60 -60 -39 -20 -57 -20 -1096 -20 l-1056 0
-39 22 c-25 14 -46 37 -59 63 -20 40 -20 62 -20 913 l0 872 38 0 c147 0 319
107 386 238 31 62 56 152 56 204 l0 37 334 3 c320 3 336 4 363 24 16 12 54 69
88 134 88 166 202 283 350 359 33 17 63 31 68 31 4 0 7 -98 7 -217z"/>
<path d="M1410 4378 c-56 -29 -79 -68 -87 -152 l-6 -66 -231 0 c-204 0 -236
-3 -272 -19 -82 -37 -113 -123 -72 -200 34 -65 71 -81 190 -81 l97 0 6 -47
c21 -158 105 -386 178 -482 15 -19 24 -37 22 -42 -6 -9 -124 -54 -180 -68 -22
-6 -86 -17 -142 -25 -118 -16 -152 -35 -177 -98 -24 -60 -14 -110 34 -158 46
-46 80 -53 190 -40 164 21 302 63 434 133 l81 43 70 -38 c135 -73 279 -118
448 -138 88 -10 100 -10 140 8 79 35 113 113 82 190 -26 63 -59 82 -178 98
-56 8 -120 19 -142 25 -55 14 -174 59 -179 68 -3 4 9 27 26 51 76 113 137 268
163 418 8 48 15 90 15 95 0 4 44 7 98 7 120 0 156 16 191 83 26 52 24 90 -9
145 -39 64 -74 72 -342 72 l-238 0 0 68 c0 84 -23 125 -83 152 -54 25 -73 25
-127 -2z m200 -545 c-1 -76 -59 -242 -111 -315 l-22 -31 -20 24 c-57 70 -128
276 -118 342 1 4 62 7 136 7 l135 0 0 -27z"/>
<path d="M3580 2208 l-45 -23 -312 -620 c-172 -341 -317 -638 -323 -659 -10
-32 -9 -47 5 -82 34 -90 119 -124 203 -82 44 22 51 30 112 150 l65 128 360 0
360 0 65 -128 c61 -120 68 -128 112 -150 38 -19 56 -22 90 -17 59 10 113 64
123 125 7 44 3 53 -316 690 l-324 645 -45 23 c-24 12 -54 22 -65 22 -11 0 -41
-10 -65 -22z m269 -880 c1 -5 -91 -8 -204 -8 -113 0 -205 2 -205 5 0 3 46 97
102 210 l103 205 102 -202 c56 -112 102 -206 102 -210z"/>
<path d="M3705 5106 c-16 -8 -110 -94 -207 -192 -249 -252 -249 -244 -4 -492
168 -171 210 -202 273 -202 74 0 143 68 143 142 0 49 -12 78 -50 121 l-30 35
42 -5 c431 -51 784 -348 902 -757 14 -48 32 -149 40 -223 14 -134 15 -136 48
-170 78 -77 196 -55 240 45 20 44 20 53 9 167 -14 146 -39 254 -86 377 -120
311 -360 575 -665 728 -93 47 -282 106 -380 120 -47 6 -100 14 -119 16 l-34 5
31 32 c41 44 52 69 52 120 0 105 -109 176 -205 133z"/>
<path d="M84 1790 c-80 -41 -96 -105 -73 -295 63 -519 427 -961 924 -1123 96
-32 253 -62 319 -62 l40 0 -25 -28 c-42 -46 -51 -60 -59 -97 -16 -73 22 -143
94 -170 36 -14 50 -15 87 -5 37 10 70 37 212 178 93 92 175 180 184 196 18 34
19 105 3 138 -16 30 -293 311 -344 349 -31 23 -49 29 -90 29 -91 0 -148 -56
-148 -145 0 -48 13 -77 50 -117 l26 -28 -26 0 c-53 0 -196 33 -273 62 -155 60
-251 123 -376 248 -189 189 -284 399 -307 683 -7 82 -14 115 -29 135 -50 67
-120 87 -189 52z"/>
</g>
</svg>
